<svg width="32" height="32" viewBox="0 0 32 32" fill="none" xmlns="http://www.w3.org/2000/svg">
<g clip-path="url(#clip0_88_239)">
<path d="M16 2.66663C23.364 2.66663 29.3333 8.63596 29.3333 16C29.3333 23.364 23.364 29.3333 16 29.3333C8.63596 29.3333 2.66663 23.364 2.66663 16C2.66663 8.63596 8.63596 2.66663 16 2.66663ZM13.172 11.2853C12.9326 11.0436 12.6099 10.9026 12.2699 10.891C11.9299 10.8795 11.5984 10.9984 11.3432 11.2232C11.088 11.4481 10.9284 11.7621 10.897 12.1008C10.8657 12.4395 10.965 12.7774 11.1746 13.0453L11.2866 13.172L14.1133 15.9986L11.2866 18.828C11.045 19.0673 10.9039 19.3901 10.8924 19.73C10.8808 20.07 10.9997 20.4015 11.2246 20.6567C11.4495 20.9119 11.7634 21.0716 12.1021 21.1029C12.4408 21.1342 12.7787 21.0349 13.0466 20.8253L13.172 20.7146L16 17.8853L18.828 20.7146C19.0673 20.9563 19.3901 21.0973 19.73 21.1089C20.07 21.1204 20.4015 21.0016 20.6567 20.7767C20.9119 20.5518 21.0716 20.2378 21.1029 19.8991C21.1342 19.5604 21.0349 19.2225 20.8253 18.9546L20.7146 18.828L17.8853 16L20.7146 13.172C20.9563 12.9326 21.0973 12.6099 21.1089 12.2699C21.1204 11.9299 21.0016 11.5984 20.7767 11.3432C20.5518 11.088 20.2378 10.9284 19.8991 10.897C19.5604 10.8657 19.2225 10.965 18.9546 11.1746L18.828 11.2853L16 14.1146L13.172 11.2853Z" fill="#0E1B3E"/>
</g>
<defs>
<clipPath id="clip0_88_239">
<rect width="32" height="32" fill="white"/>
</clipPath>
</defs>
</svg>
