<svg width="360" height="271.33" viewBox="0 0 406 306" fill="none" xmlns="http://www.w3.org/2000/svg">
<path d="M335.701 191.824L194.149 111.04L72.6436 182.628L72.3391 179.948L58.2306 178.801V191.123L210.592 279.083C209.577 278.495 347.78 198.705 347.78 198.705V186.383L335.701 191.824Z" fill="#B3D1FF"/>
<path d="M58.2306 178.801L210.592 266.761C209.577 266.173 347.78 186.383 347.78 186.383L194.149 98.728L58.2306 178.801Z" fill="#DAE8FF"/>
<path d="M198.108 232.15C245.022 232.15 283.053 209.533 283.053 181.633C283.053 153.734 245.022 131.117 198.108 131.117C151.194 131.117 113.162 153.734 113.162 181.633C113.162 209.533 151.194 232.15 198.108 232.15Z" fill="#67C7F4"/>
<path opacity="0.13" d="M198.108 232.15C245.022 232.15 283.053 209.533 283.053 181.633C283.053 153.734 245.022 131.117 198.108 131.117C151.194 131.117 113.162 153.734 113.162 181.633C113.162 209.533 151.194 232.15 198.108 232.15Z" fill="#67C7F4"/>
<path d="M196.321 190.758C208.301 190.758 218.012 184.982 218.012 177.857C218.012 170.732 208.301 164.957 196.321 164.957C184.342 164.957 174.631 170.732 174.631 177.857C174.631 184.982 184.342 190.758 196.321 190.758Z" fill="white"/>
<path d="M153.204 167.048V175.33C153.204 175.465 153.258 175.594 153.353 175.689C153.448 175.784 153.577 175.838 153.712 175.838C153.846 175.838 153.975 175.784 154.07 175.689C154.166 175.594 154.219 175.465 154.219 175.33V167.048C154.219 166.913 154.166 166.784 154.07 166.689C153.975 166.594 153.846 166.54 153.712 166.54C153.577 166.54 153.448 166.594 153.353 166.689C153.258 166.784 153.204 166.913 153.204 167.048Z" fill="#B3D1FF"/>
<path d="M196.321 187.175C204.971 187.175 211.983 183.003 211.983 177.857C211.983 172.711 204.971 168.54 196.321 168.54C187.672 168.54 180.66 172.711 180.66 177.857C180.66 183.003 187.672 187.175 196.321 187.175Z" stroke="#D9D3DB" stroke-width="1.015" stroke-miterlimit="10"/>
<path d="M196.271 181.633C199.987 181.633 203 179.675 203 177.258C203 174.842 199.987 172.884 196.271 172.884C192.554 172.884 189.541 174.842 189.541 177.258C189.541 179.675 192.554 181.633 196.271 181.633Z" fill="#2E1438"/>
<path opacity="0.18" d="M171.9 185.257C171.9 185.257 177.838 193.458 193.926 193.214L189.541 228.343C189.541 228.343 150.626 227.846 128.641 204.836L171.9 185.257Z" fill="#DDF2FD"/>
<path opacity="0.18" d="M196.271 162.135C196.271 162.135 211.496 161.536 216.398 169.748L254.227 146.22C254.227 146.22 229.207 130.782 189.541 134.182L196.271 162.135Z" fill="#DDF2FD"/>
<path d="M98.993 96.8604V120.449C98.993 120.5 97.4299 121.078 97.3182 121.129C96.1182 121.66 95.0324 122.418 94.121 123.362C91.6038 126.153 93.309 130.772 97.166 130.569C101.226 130.355 102.18 125.991 102.403 122.641V98.728L118.288 90.4151V86.213L98.993 96.8604Z" fill="#0E1B3E"/>
<path d="M114.878 87.9385V107.558C114.878 107.609 113.315 108.188 113.203 108.238C112.003 108.769 110.917 109.527 110.006 110.471C107.489 113.263 109.194 117.881 113.051 117.678C117.111 117.465 118.065 113.1 118.288 109.751V87.025C117.131 87.2889 115.994 87.5934 114.878 87.9385Z" fill="#0E1B3E"/>
<path d="M147.317 64.3093V93.3383C147.317 93.4094 145.389 94.1097 145.287 94.1706C143.809 94.8248 142.472 95.7589 141.349 96.9213C138.253 100.352 140.334 106.056 145.084 105.792C150.037 105.528 151.255 100.159 151.539 96.0382V66.6032L171.088 56.3822V51.2057L147.317 64.3093Z" fill="#0E1B3E"/>
<path d="M166.866 53.3371V77.4738C166.866 77.5449 164.938 78.2452 164.836 78.3061C163.358 78.9604 162.021 79.8944 160.898 81.0568C157.802 84.4875 159.883 90.1918 164.633 89.9279C169.586 89.664 170.804 84.2946 171.088 80.1737V52.2206C169.647 52.515 168.246 52.9108 166.866 53.3371Z" fill="#0E1B3E"/>
<path d="M221.118 83.2086C221.154 83.1023 221.161 82.9883 221.139 82.8783C221.117 82.7682 221.067 82.6658 220.993 82.5815C220.919 82.4971 220.824 82.4337 220.717 82.3977C220.611 82.3617 220.497 82.3543 220.387 82.3763L219.575 82.5082C219.575 82.5082 219.575 82.5082 219.575 82.4473C219.628 82.3711 219.664 82.2852 219.684 82.1946C219.703 82.104 219.704 82.0105 219.687 81.9195C219.763 81.8179 219.807 81.6959 219.813 81.5691C219.82 81.4423 219.788 81.3165 219.723 81.2076C219.657 81.0988 219.561 81.0118 219.446 80.9578C219.331 80.9039 219.203 80.8853 219.078 80.9045C215.136 81.6602 211.109 81.8652 207.111 81.5135C206.349 81.4526 205.558 81.3511 204.786 81.3613L203.071 81.2192H202.635C201.833 81.2192 201.833 82.4372 202.635 82.4575C202.677 82.587 202.754 82.7022 202.858 82.7901C202.962 82.8779 203.089 82.935 203.223 82.9548L203.924 83.0157C203.892 83.1127 203.881 83.2151 203.892 83.3165C203.902 83.4179 203.934 83.516 203.985 83.6044C204.022 83.6814 204.077 83.7477 204.147 83.7973C204.24 83.8743 204.352 83.9236 204.472 83.9394H204.665C206.37 84.3165 208.1 84.5709 209.841 84.7006C209.074 85.1673 208.441 85.8248 208.004 86.6088C207.94 86.728 207.916 86.8647 207.935 86.9987C207.955 87.1327 208.017 87.2568 208.113 87.3525C208.209 87.4483 208.333 87.5106 208.467 87.5302C208.601 87.5498 208.737 87.5257 208.857 87.4614C210.288 86.6697 211.749 85.9491 213.241 85.2893C215.973 85.7392 218.775 85.4555 221.361 84.4672C222.082 84.1525 221.808 83.036 221.118 83.2086Z" fill="#EF986C"/>
<path d="M239.043 59.4678C240.467 59.4678 241.621 58.3135 241.621 56.8897C241.621 55.4658 240.467 54.3116 239.043 54.3116C237.619 54.3116 236.465 55.4658 236.465 56.8897C236.465 58.3135 237.619 59.4678 239.043 59.4678Z" fill="#F8F32B"/>
<path d="M206.147 151.691C205.416 152.371 202.472 153.579 202.97 156.268C203.609 159.709 210.897 158.359 210.897 158.359L219.94 154.736L228.436 142.414L221.331 139.988L214.876 149.356" fill="#F5F5F5"/>
<path d="M221.351 139.988C221.077 140.566 215.19 147.428 213.759 148.382C212.328 149.336 206.502 150.625 206.147 151.691C205.791 152.756 209.192 156.075 209.192 156.075C209.192 156.075 217.372 154.045 218.661 153.081C219.46 152.493 220.186 151.811 220.823 151.051L227.319 141.632" fill="#0A0A0A"/>
<path d="M240.677 162.5C240.464 163.515 238.718 166.144 240.677 168.073C243.153 170.539 248.391 165.292 248.391 165.292L253.78 157.172V142.2L246.564 144.23V155.609" fill="#F5F5F5"/>
<path d="M246.544 144.23C246.655 144.86 245.701 153.853 245.051 155.456C244.402 157.06 240.352 161.424 240.667 162.5C240.981 163.576 245.742 164.358 245.742 164.358C245.742 164.358 251.304 158.014 251.832 156.522C252.158 155.59 252.373 154.622 252.471 153.639V142.2" fill="#0A0A0A"/>
<path d="M242.666 86.6901C242.666 86.6901 232.942 107.65 230.872 111.385C229.136 114.532 217.616 139.348 213.932 147.306C215.33 148.695 217.034 149.737 218.908 150.349C220.782 150.96 222.772 151.124 224.721 150.828L251.111 100.464L256.013 86.2536L242.666 86.6901Z" fill="#F1E4C1"/>
<path d="M258.5 101.641C258.855 95.3175 257.942 88.9738 257.008 82.7011C256.419 80.7523 255.993 79.2805 255.993 79.2805L246.645 92.506C246.645 92.506 238.058 121.403 239.987 125.493C241.915 129.584 243.793 153.792 243.793 153.792C243.793 153.792 250.086 158.603 253.567 151.965C254.481 150.219 253.019 123.169 253.019 123.169C253.019 123.169 256.44 110.918 258.5 101.641Z" fill="#F1E4C1"/>
<path d="M242.717 61.447C242.169 61.5789 237.693 62.2082 235.612 65.2837C233.531 68.3591 230.222 75.4337 228.213 77.0577C226.203 78.6817 216.033 80.1027 216.033 80.1027C216.033 80.1027 214.916 85.1777 216.54 87.1265C218.164 89.0753 230.334 85.7765 233.085 85.1574C235.835 84.5382 244.006 72.4699 244.006 72.4699" fill="#B3E7FF"/>
<path d="M247.934 80.8031C248.557 80.7625 249.176 80.7083 249.792 80.6406C247.894 72.5206 242.169 54.7074 241.022 80.3869C243.293 80.8643 245.622 81.0045 247.934 80.8031Z" fill="#35406E"/>
<path d="M255.181 63.477C253.78 62.8985 250.725 61.244 248.949 61.2745C246.135 61.2856 243.325 61.5095 240.545 61.9444C237.074 65.5273 238.515 73.4545 239.175 77.616C239.784 81.4831 240.748 85.2691 241.641 89.0652C246.158 91.5012 254.41 89.0043 257.648 87.7558C257.724 79.5967 256.897 71.4541 255.181 63.477Z" fill="#B3E7FF"/>
<path d="M248.847 48.7798C248.422 48.3764 247.87 48.1327 247.285 48.0901C246.701 48.0475 246.119 48.2088 245.64 48.5463C245.612 48.5041 245.578 48.4664 245.539 48.4347C244.767 47.846 244.341 47.1558 243.295 47.0441C242.336 46.9898 241.379 47.193 240.524 47.6328C239.692 48.0012 239.039 48.6834 238.708 49.5309C238.622 49.503 238.529 49.503 238.444 49.5309C237.475 49.7432 236.628 50.3262 236.083 51.1551C235.539 51.984 235.341 52.9931 235.531 53.9664C235.906 55.6412 237.561 57.2956 239.337 57.1129C240.225 57.266 241.135 57.2279 242.006 57.0013C242.191 56.9506 242.359 56.8513 242.493 56.7138C242.627 56.5763 242.722 56.4055 242.767 56.2192C242.813 56.0328 242.808 55.8377 242.752 55.654C242.697 55.4702 242.594 55.3046 242.453 55.1743L242.565 55.0728H242.666C242.835 55.2146 243.052 55.2871 243.272 55.2758C243.492 55.2645 243.7 55.1702 243.854 55.0119L243.986 54.9002C244.209 54.8072 244.42 54.688 244.615 54.545H244.869V54.8089C244.854 55.0253 244.91 55.2406 245.027 55.4232C245.143 55.6059 245.316 55.7463 245.518 55.8239C245.723 55.8646 245.933 55.8646 246.137 55.8239C245.792 56.5708 245.281 57.23 244.645 57.7524C243.772 58.402 244.544 59.5794 245.417 59.4982C245.051 59.8839 245.549 61.7921 245.995 61.4267C247.114 60.5322 248.033 59.4136 248.694 58.1429C249.355 56.8721 249.742 55.4771 249.832 54.0476C249.873 52.8296 249.923 49.7339 248.847 48.7798Z" fill="#191919"/>
<path d="M238.139 54.6871C237.886 54.6871 239.307 62.9187 242.778 62.8781C247.142 62.8781 247.853 57.4986 247.853 57.4986C247.853 57.4986 247.853 53.6518 244.96 52.8601C242.067 52.0684 241.276 54.7074 238.139 54.6871Z" fill="#EF986C"/>
<path d="M238.139 54.6871C238.139 54.6871 241.6 54.6871 243.285 53.7939C244.97 52.9007 243.397 59.0719 244.727 58.8689C246.056 58.6659 245.427 55.5295 246.645 56.5242C247.863 57.5189 245.945 61.5992 245.945 61.5992C245.945 61.5992 249.243 59.1531 249.528 55.8949C249.812 52.6368 245.325 50.3632 241.56 51.3376C237.794 52.312 238.139 54.6871 238.139 54.6871Z" fill="#191919"/>
<path d="M241.509 124.935C241.215 120.226 242.666 115.354 243.539 110.725L246.341 96.16C246.493 95.3785 245.326 95.0435 245.143 95.825L242.352 110.4C241.519 114.745 240.2 119.272 240.22 123.727C240.24 128.183 241.448 132.487 242.067 136.801C242.818 142.018 243.336 147.255 243.691 152.513C243.742 153.305 244.991 153.315 244.93 152.513C244.615 147.793 244.158 143.083 243.529 138.394C242.94 133.938 241.783 129.432 241.509 124.935Z" fill="#0A0A0A"/>
<path d="M250.634 59.9854C250.634 59.9854 250.573 55.6716 250.055 55.7528C249.538 55.834 249.396 57.458 249.264 58.402L248.563 56.6765C248.563 56.6765 247.295 54.4232 246.371 54.6465C245.447 54.8698 245.457 58.27 245.417 58.9501C245.376 59.6301 248.36 62.8883 248.36 62.8883L249.457 61.2643L249.548 61.9951L250.634 59.9854Z" fill="#EF986C"/>
<path d="M250.634 59.9854C251.71 59.4069 264.073 71.5564 262.225 77.0273C260.378 82.4981 245.407 68.2374 245.407 68.2374C245.407 68.2374 248.107 61.3252 250.634 59.9854Z" fill="#B3E7FF"/>
<path d="M247.234 58.5644C248.658 58.5644 249.812 57.4101 249.812 55.9863C249.812 54.5625 248.658 53.4082 247.234 53.4082C245.81 53.4082 244.656 54.5625 244.656 55.9863C244.656 57.4101 245.81 58.5644 247.234 58.5644Z" fill="#F8F32B"/>
<path d="M243.204 47.44C239.926 46.9427 238.454 48.455 237.794 49.7035H237.865C238.08 49.6125 238.301 49.5345 238.525 49.47C238.586 49.463 238.647 49.463 238.708 49.47C239.253 49.1054 239.881 48.8821 240.535 48.8204C245.863 48.993 246.31 54.7785 246.31 54.7785L247.985 54.7176C247.985 54.7176 248.492 48.252 243.204 47.44Z" fill="#F8F32B"/>
<path d="M245.407 68.2374C245.407 68.2374 252.177 75.9717 257.242 77.281V84.1932C257.242 84.1932 248.036 73.5966 245.407 68.2374Z" fill="#93BCD0"/>
<path opacity="0.32" d="M324.475 188.231L300.41 202.227L280.059 188.789L299.07 177.258" fill="url(#paint0_linear_82_4)"/>
<path d="M321.278 162.642C320.527 161.039 317.218 159.821 313.249 159.821C309.281 159.821 305.799 161.1 305.129 162.764C300.46 169.301 295.862 179.948 301.607 187.124C303.003 188.742 304.735 190.034 306.683 190.911C308.631 191.788 310.748 192.228 312.884 192.199H313.635C315.771 192.228 317.887 191.788 319.836 190.911C321.784 190.034 323.516 188.742 324.912 187.124C330.677 179.908 325.977 169.169 321.278 162.642Z" fill="#55CDFF"/>
<path opacity="0.5" d="M313.249 166.845C317.773 166.845 321.44 165.272 321.44 163.333C321.44 161.393 317.773 159.821 313.249 159.821C308.725 159.821 305.058 161.393 305.058 163.333C305.058 165.272 308.725 166.845 313.249 166.845Z" fill="#25414E"/>
<path d="M322.77 133.532C317.699 142.106 314.58 151.691 313.635 161.607C313.634 149.619 312.533 137.656 310.346 125.869C310.265 125.453 309.626 125.625 309.707 126.042C312.154 139.222 313.235 152.62 312.935 166.022C312.934 166.073 312.945 166.123 312.967 166.169C312.99 166.214 313.023 166.253 313.063 166.283C313.104 166.313 313.152 166.333 313.202 166.34C313.252 166.348 313.303 166.343 313.351 166.327C313.351 166.428 313.351 166.52 313.351 166.621C313.364 166.699 313.405 166.769 313.465 166.82C313.526 166.87 313.602 166.898 313.681 166.898C313.759 166.898 313.836 166.87 313.896 166.82C313.956 166.769 313.997 166.699 314.011 166.621C314.241 155.085 317.443 143.804 323.308 133.867C323.324 133.799 323.318 133.728 323.291 133.663C323.264 133.599 323.218 133.545 323.159 133.508C323.099 133.471 323.03 133.453 322.96 133.458C322.891 133.462 322.824 133.488 322.77 133.532V133.532Z" fill="#E51A4C"/>
<path d="M317.634 144.433C317.634 144.433 322.709 128.132 333.58 122.103C333.58 122.103 331.377 125.341 332.402 127.98C333.428 130.619 335.052 135.329 329.905 137.978C324.759 140.627 321.785 137.978 322.263 143.124C322.74 148.27 324.739 150.767 321.44 153.274C318.142 155.781 315.35 157.953 314.234 163.333C314.234 163.333 315.482 149.853 317.634 144.433Z" fill="#E51A4C"/>
<path d="M312.803 142.718C312.803 142.718 310.692 117.678 306.286 111.344C306.623 113.764 306.19 116.229 305.048 118.389C303.14 122.012 301.09 123.271 302.196 127.99C303.302 132.71 307.768 131.766 307.342 136.486C306.916 141.206 303.181 140.313 305.048 146.271C306.916 152.229 313.259 156.147 313.259 156.147" fill="#E51A4C"/>
<path opacity="0.32" d="M235.074 242.513L205.852 258.763L196.311 253.018L224.142 237.753" fill="url(#paint1_linear_82_4)"/>
<path d="M222.924 236.088V240.036H236.759V236.088" fill="#3B0459"/>
<path d="M229.847 243.985C233.664 243.985 236.759 242.217 236.759 240.036C236.759 237.856 233.664 236.088 229.847 236.088C226.029 236.088 222.935 237.856 222.935 240.036C222.935 242.217 226.029 243.985 229.847 243.985Z" fill="#2E1438"/>
<path d="M229.847 240.036C233.664 240.036 236.759 238.268 236.759 236.088C236.759 233.907 233.664 232.14 229.847 232.14C226.029 232.14 222.935 233.907 222.935 236.088C222.935 238.268 226.029 240.036 229.847 240.036Z" fill="#6F5A75"/>
<path d="M208.41 244.025V247.974H222.234V244.025" fill="#3B0459"/>
<path d="M215.322 251.922C219.14 251.922 222.234 250.154 222.234 247.974C222.234 245.793 219.14 244.025 215.322 244.025C211.505 244.025 208.41 245.793 208.41 247.974C208.41 250.154 211.505 251.922 215.322 251.922Z" fill="#2E1438"/>
<path d="M215.322 247.974C219.14 247.974 222.234 246.206 222.234 244.025C222.234 241.845 219.14 240.077 215.322 240.077C211.505 240.077 208.41 241.845 208.41 244.025C208.41 246.206 211.505 247.974 215.322 247.974Z" fill="#6F5A75"/>
<path opacity="0.32" d="M95.5115 177.258L79.4034 189.134L65.9141 181.796L84.925 170.265" fill="url(#paint2_linear_82_4)"/>
<path d="M88.1223 179.187C92.5171 179.187 96.0799 177.347 96.0799 175.076C96.0799 172.806 92.5171 170.966 88.1223 170.966C83.7274 170.966 80.1647 172.806 80.1647 175.076C80.1647 177.347 83.7274 179.187 88.1223 179.187Z" fill="#B3D1FF"/>
<path d="M88.1223 170.397C92.5171 170.397 96.0799 168.557 96.0799 166.286C96.0799 164.016 92.5171 162.176 88.1223 162.176C83.7274 162.176 80.1647 164.016 80.1647 166.286C80.1647 168.557 83.7274 170.397 88.1223 170.397Z" fill="#B3D1FF"/>
<path d="M80.1647 166.286V175.076H96.09V166.286" fill="#B3D1FF"/>
<path d="M156.625 161.78H88.0005V168.154H156.625V161.78Z" fill="#F4B27F"/>
<path d="M156.615 161.78C156.615 161.78 160.137 165.007 156.615 168.154V161.78Z" fill="#F4B27F"/>
<path d="M88.0005 161.78C88.0005 161.78 85.0468 165.748 88.0005 168.154V161.78Z" fill="#F4B27F"/>
<defs>
<linearGradient id="paint0_linear_82_4" x1="297.263" y1="195.62" x2="304.449" y2="185.409" gradientUnits="userSpaceOnUse">
<stop stop-opacity="0"/>
<stop offset="0.99" stop-color="#353B5B"/>
</linearGradient>
<linearGradient id="paint1_linear_82_4" x1="209.75" y1="256.215" x2="218.286" y2="244.086" gradientUnits="userSpaceOnUse">
<stop stop-opacity="0"/>
<stop offset="0.99" stop-color="#353B5B"/>
</linearGradient>
<linearGradient id="paint2_linear_82_4" x1="76.7238" y1="185.196" x2="82.4484" y2="177.055" gradientUnits="userSpaceOnUse">
<stop stop-opacity="0"/>
<stop offset="0.99" stop-color="#353B5B"/>
</linearGradient>
</defs>
</svg>
