<svg width="44" height="480" viewBox="0 0 44 480" fill="none" xmlns="http://www.w3.org/2000/svg">
<path fill-rule="evenodd" clip-rule="evenodd" d="M38.8438 0.861337C25.1959 12.7061 6.64049 46.9934 8.6986 80.408C9.83517 98.861 12.2235 114.514 14.5217 129.576C17.3789 148.302 20.0968 166.115 20.0968 187.26C20.0968 210.119 10.6486 228.903 0.000468542 240H0C7.80758e-05 240 0.000156151 240 0.000234227 240C0.000156151 240 7.80758e-05 240 0 240H0.000468542C10.6486 251.097 20.0968 269.881 20.0968 292.74C20.0968 313.885 17.3789 331.698 14.5217 350.424C12.2235 365.486 9.83517 381.139 8.6986 399.592C6.64049 433.007 25.1959 467.294 38.8438 479.139C39.5936 479.79 41.4116 480.498 42.8931 479.513C44.3929 478.515 44.2429 477.019 43.1931 475.648C42.8202 475.161 42.3747 474.606 41.8702 473.978C37.7259 468.82 29.6081 458.717 25.1959 440.487C21.9163 426.937 25.2609 400.542 28.6878 373.497C31.9788 347.525 35.3457 320.954 32.9947 304.585C29.3224 279.017 27.1456 266.931 6.89907 240C27.1456 213.069 29.3224 200.983 32.9947 175.415C35.3457 159.046 31.9788 132.475 28.6878 106.503C25.2609 79.4579 21.9163 53.0626 25.1959 39.5126C29.6081 21.2834 37.7259 11.1799 41.8703 6.02175C42.3747 5.39396 42.8202 4.83942 43.1931 4.3524C44.2429 2.9811 44.3929 1.48453 42.8931 0.487267C41.4116 -0.497831 39.5936 0.210345 38.8438 0.861337Z" fill="#272727"/>
</svg>
