<svg width="72" height="72" viewBox="0 0 40 40" fill="none" xmlns="http://www.w3.org/2000/svg">
<path d="M38.34 25.98C38.5578 25.9802 38.7735 25.9375 38.9747 25.8544C39.176 25.7713 39.359 25.6493 39.5131 25.4955C39.6673 25.3416 39.7896 25.1589 39.8731 24.9578C39.9567 24.7567 39.9998 24.5411 40 24.3233C40.0002 24.1056 39.9575 23.8899 39.8744 23.6886C39.7913 23.4873 39.6693 23.3044 39.5155 23.1502C39.3616 22.9961 39.1789 22.8738 38.9778 22.7902C38.7767 22.7067 38.5611 22.6636 38.3433 22.6633C37.9035 22.6629 37.4815 22.8372 37.1702 23.1479C36.8589 23.4586 36.6838 23.8802 36.6833 24.32C36.6829 24.7598 36.8572 25.1818 37.1679 25.4931C37.4786 25.8044 37.9002 25.9796 38.34 25.98V25.98ZM36.68 19.805H35.2633C34.3533 19.805 33.8633 20.4883 33.8633 21.625V25.735H31.18V19.805H30.04C29.1283 19.805 28.64 20.4883 28.64 21.625V25.735H25.9567V17.6117H28.64V18.845C29.08 17.8883 29.6833 17.6117 30.5783 17.6117H33.865V18.845C34.305 17.8883 34.9067 17.6117 35.8017 17.6117H36.68V19.805V19.805ZM25.37 22.3067H19.7717C19.9183 23.2167 20.4883 23.7367 21.4483 23.7367C22.165 23.7367 22.6683 23.445 22.8317 22.925L25.2067 23.5917C24.6217 25.005 23.1733 25.865 21.4483 25.865C18.535 25.865 17.2 23.6067 17.2 21.6733C17.2 19.7733 18.3717 17.4983 21.2833 17.4983C24.3767 17.4983 25.4017 19.805 25.4017 21.5117C25.4017 21.885 25.385 22.1283 25.3683 22.3067H25.37ZM22.7667 20.7317C22.7 20.0317 22.1967 19.3817 21.285 19.3817C20.4383 19.3817 19.935 19.7567 19.7717 20.7317H22.7667V20.7317ZM12.5133 25.7333H14.8733L17.8183 17.61H15.1183L13.685 22.3383L12.2217 17.61H9.53333L12.5117 25.7333H12.5133ZM1.51333 25.7333H4.18333V19.8033H6.72333V25.7333H9.375V17.61H4.18333V17.1067C4.18333 16.5533 4.575 16.2133 5.19333 16.2133H6.72333V14.02H4.75C2.81333 14.02 1.51167 15.2067 1.51167 16.945V17.6117H0V19.805H1.51333V25.735V25.7333Z" fill="#FEFEFD"/>
</svg>
