<svg width="80" height="28.44" viewBox="0 0 40 15" fill="none" xmlns="http://www.w3.org/2000/svg">
<g clip-path="url(#clip0_38_4)">
<path d="M7.83111 6.53333V11.6355C7.83111 11.6711 7.82222 11.7333 7.77778 11.7511C7.77778 11.7511 6.66667 12.5422 4.83556 12.5422C2.62222 12.5422 0 11.8489 0 7.27999C0 2.7111 2.29333 1.76888 4.53333 1.77777C6.47111 1.77777 7.25333 2.21333 7.37778 2.29333C7.41333 2.33777 7.43111 2.37333 7.43111 2.41777L7.05778 3.99999C7.05778 4.07999 6.97778 4.17777 6.88 4.15111C6.56 4.05333 6.08 3.85777 4.95111 3.85777C3.64444 3.85777 2.24 4.2311 2.24 7.17333C2.24 10.1155 3.57333 10.4622 4.53333 10.4622C5.35111 10.4622 5.64444 10.3644 5.64444 10.3644V8.31999H4.33778C4.24 8.31999 4.16889 8.24888 4.16889 8.16888V6.53333C4.16889 6.45333 4.24 6.38222 4.33778 6.38222H7.66222C7.76 6.38222 7.83111 6.45333 7.83111 6.53333ZM39.6978 8.60444C39.6978 11.6533 38.7111 12.5244 36.9867 12.5244C35.5289 12.5244 34.7467 11.7867 34.7467 11.7867C34.7467 11.7867 34.7111 12.1955 34.6667 12.2489C34.64 12.3022 34.5956 12.32 34.5422 12.32H33.2267C33.1378 12.32 33.0578 12.2489 33.0578 12.1689L33.0756 2.29333C33.0756 2.21333 33.1467 2.14222 33.2267 2.14222H35.12C35.2 2.14222 35.2711 2.21333 35.2711 2.29333V5.64444C35.2711 5.64444 36 5.17333 37.0667 5.17333L37.0578 5.15555C38.1244 5.15555 39.6978 5.55555 39.6978 8.60444V8.60444ZM24.6044 2.15999C24.6844 2.15999 24.7556 2.23111 24.7556 2.31111V12.1867C24.7556 12.2667 24.6844 12.3378 24.6044 12.3378H22.7111C22.6311 12.3378 22.56 12.2667 22.56 12.1867L22.5778 7.96444H19.6356V12.1867C19.6356 12.2667 19.5644 12.3378 19.4844 12.3378H17.5911C17.52 12.3378 17.44 12.2667 17.44 12.1867V2.31111C17.44 2.23111 17.5111 2.15999 17.5911 2.15999H19.4844C19.5644 2.15999 19.6356 2.23111 19.6356 2.31111V5.94666H22.5778V2.31111C22.5778 2.23111 22.6489 2.15999 22.7289 2.15999H24.6044ZM31.9467 5.39555C32.0444 5.39555 32.1156 5.46666 32.1156 5.54666L32.0978 12.1867C32.0978 12.2667 32.0444 12.3378 31.9467 12.3378H30.7556C30.6933 12.3378 30.6311 12.3022 30.6133 12.2578C30.5867 12.2044 30.5422 11.8578 30.5422 11.8578C30.5422 11.8578 29.5378 12.5422 28.3022 12.5422C26.8 12.5422 25.7067 12.0533 25.7067 10.0978V5.55555C25.7067 5.47555 25.7778 5.40444 25.8578 5.40444H27.76C27.84 5.40444 27.9111 5.47555 27.9111 5.55555V9.77777C27.9111 10.4444 28.1067 10.7467 28.7733 10.7467C29.44 10.7467 29.9289 10.4 29.9289 10.4V5.56444C29.9289 5.46666 29.9822 5.39555 30.08 5.39555H31.9467ZM16.4747 10.7031H16.4791C16.5154 10.7106 16.5479 10.7307 16.5708 10.7598C16.5937 10.7889 16.6056 10.8252 16.6044 10.8622V12.1955C16.6044 12.2578 16.5778 12.32 16.5244 12.3378C16.4356 12.3822 15.8667 12.5333 15.3956 12.5333C14.3644 12.5333 12.8533 12.3111 12.8533 10.1422V7.22666H11.8667C11.7867 7.22666 11.7156 7.15555 11.7156 7.05777V5.84888C11.7156 5.77777 11.76 5.71555 11.8311 5.69777C11.8933 5.68888 12.8622 5.44888 12.8622 5.44888V3.51999C12.8622 3.44888 12.9067 3.40444 12.9867 3.40444H14.9067C14.9867 3.40444 15.0311 3.44888 15.0311 3.51999V5.39555H16.4444C16.5156 5.39555 16.5867 5.46666 16.5867 5.54666V7.05777C16.5867 7.15555 16.5244 7.22666 16.4444 7.22666H15.0311V10.0098C15.0311 10.4275 15.2711 10.7475 15.9644 10.7475C16.184 10.7475 16.392 10.704 16.4747 10.7031V10.7031ZM10.88 5.38666C10.96 5.38666 11.0311 5.45777 11.0311 5.53777V12.0889C11.0311 12.2489 10.9867 12.3289 10.8089 12.3289H9.10222C8.95111 12.3289 8.83556 12.2667 8.83556 12.0889V5.56444C8.83556 5.46666 8.90667 5.38666 8.98667 5.38666H10.88ZM37.5378 8.74666C37.5378 7.13777 36.8889 6.92444 36.2044 6.99555C35.6711 7.03111 35.2444 7.29777 35.2444 7.29777V10.4267C35.2444 10.4267 35.68 10.7289 36.3289 10.7467C37.2444 10.7733 37.5378 10.4444 37.5378 8.74666ZM9.94667 2.38222C10.6133 2.38222 11.1556 2.92444 11.1556 3.60888C11.1556 4.29333 10.6133 4.83555 9.94667 4.83555C9.26222 4.83555 8.72 4.29333 8.72 3.60888C8.72 2.92444 9.26222 2.38222 9.94667 2.38222V2.38222ZM16.4711 10.6933V10.6942L16.48 10.7031H16.4791L16.4747 10.7022V10.7031C16.4667 10.7022 16.4613 10.6933 16.4533 10.6933H16.4711Z" fill="#FEFEFD"/>
</g>
<defs>
<clipPath id="clip0_38_4">
<rect width="40" height="14.2222" fill="white"/>
</clipPath>
</defs>
</svg>
